Coordinates
version=1
nRows=7
nColumns=40
inDegrees=yes

Units are S.I. units (second, meters, Newtons, ...)
Angles are in degrees.

endheader
time	pelvis_tilt	pelvis_list	pelvis_rotation	pelvis_tx	pelvis_ty	pelvis_tz	hip_flexion_r	hip_adduction_r	hip_rotation_r	knee_angle_r	knee_angle_r_beta	ankle_angle_r	subtalar_angle_r	mtp_angle_r	hip_flexion_l	hip_adduction_l	hip_rotation_l	knee_angle_l	knee_angle_l_beta	ankle_angle_l	subtalar_angle_l	mtp_angle_l	lumbar_extension	lumbar_bending	lumbar_rotation	arm_flex_r	arm_add_r	arm_rot_r	elbow_flex_r	pro_sup_r	wrist_flex_r	wrist_dev_r	arm_flex_l	arm_add_l	arm_rot_l	elbow_flex_l	pro_sup_l	wrist_flex_l	wrist_dev_l
     43.62328571	     -4.38993474	     -3.52344630	     -3.26627994	      0.80416309	      0.92850784	      0.44489501	     29.70051455	     -3.19751432	    -12.49163718	     16.87091769	     16.87091769	      4.25906185	      6.44630492	      9.05871177	      4.03639542	     -4.37801688	    -14.79517057	     14.22148198	     14.22148198	     17.44792263	      1.54313594	     -7.83224682	    -10.40691947	     -1.31714975	     -1.67010259	    -13.48074014	    -16.86111638	     -7.64414529	     28.91812595	     46.87736878	      0.00000000	      0.00000000	     12.98322762	    -14.31790075	    -10.15724530	     39.90321789	     46.42397529	      0.00000000	      0.00000000
     43.63657143	     -4.54011649	     -3.39206036	     -3.09478510	      0.80463220	      0.92728966	      0.44603407	     29.38657681	     -3.19192023	    -12.59194678	     16.96652938	     16.96652938	      4.18934494	      6.34883487	      9.08616392	      3.71230999	     -4.30035576	    -14.77731169	     14.21480046	     14.21480046	     17.74559906	      1.52495122	     -7.95151677	    -10.01298508	     -1.32832397	     -1.65958685	    -13.39145843	    -16.91677313	     -7.66321538	     28.98518186	     46.87643020	      0.00000000	      0.00000000	     13.03831417	    -14.25436340	    -10.14526229	     39.95815489	     46.42349941	      0.00000000	      0.00000000
     43.64985714	     -4.34667001	     -3.16089037	     -2.89550872	      0.80570139	      0.92639321	      0.44707572	     28.80014696	     -3.29601294	    -12.42651767	     17.45999213	     17.45999213	      4.32686308	      5.63952856	      8.88591035	      2.49457820	     -3.96919072	    -14.71503304	     13.27438859	     13.27438859	     18.01401912	      2.27835024	     -8.14866925	    -10.03837269	     -1.44567000	     -1.82408800	    -13.24833178	    -17.18696990	     -7.98668540	     29.94127228	     46.85181298	      0.00000000	      0.00000000	     12.86919153	    -13.98194042	    -10.14253237	     40.49837133	     46.42261829	      0.00000000	      0.00000000
     43.66314286	     -4.49785949	     -2.99024089	     -2.65470999	      0.80657667	      0.92491880	      0.44825208	     28.35290332	     -3.33983325	    -12.56709320	     17.58778298	     17.58778298	      4.28645680	      5.38306591	      8.85702070	      2.10549115	     -3.84117949	    -14.55925173	     13.17941266	     13.17941266	     18.42851034	      2.37240017	     -8.31780911	     -9.64495454	     -1.47636225	     -1.79777218	    -13.05661661	    -17.28764368	     -8.04700092	     30.17413845	     46.84658142	      0.00000000	      0.00000000	     12.85517822	    -13.74137190	    -10.10327233	     40.62428820	     46.41824423	      0.00000000	      0.00000000
     43.67642857	     -4.36724818	     -2.79942111	     -2.45361716	      0.80791951	      0.92378881	      0.44947165	     27.59885698	     -3.30022420	    -12.11113131	     17.70636550	     17.70636550	      3.55982745	      4.22748614	      6.68835669	      1.07573712	     -3.58133268	    -14.34713949	     12.48468759	     12.48468759	     18.58409053	      2.52647148	     -8.38218510	     -9.66961434	     -1.40693854	     -1.88361860	    -13.88695884	    -17.42647513	     -9.24281546	     34.02216948	     46.70989978	      0.00000000	      0.00000000	     11.88573056	    -13.57725706	    -10.31970623	     43.11268555	     46.43873644	      0.00000000	      0.00000000
     43.68971429	     -4.37792646	     -2.65302218	     -2.25025560	      0.80920159	      0.92249517	      0.45083473	     27.06376552	     -3.27367762	    -11.87373024	     17.98388440	     17.98388440	      3.34208158	      3.46029225	      5.82345685	      0.42509166	     -3.46071262	    -14.13150281	     12.23839502	     12.23839502	     18.97592667	      2.63899080	     -8.17834635	     -9.42485904	     -1.33640366	     -1.84235357	    -13.58172349	    -17.54580121	     -9.40851479	     34.63855992	     46.67975927	      0.00000000	      0.00000000	     11.72137482	    -13.40661629	    -10.23327287	     43.19977312	     46.42519370	      0.00000000	      0.00000000
     43.70300000	     -4.41018437	     -2.60796577	     -2.02791271	      0.81044375	      0.92119087	      0.45229014	     26.49873080	     -3.11566039	    -11.54910878	     18.06992390	     18.06992390	      2.58471516	      2.41796131	      3.47995338	      0.00015257	     -3.48783777	    -13.68345425	     12.40204217	     12.40204217	     19.69200236	      2.36176956	     -7.31654676	     -9.22895553	     -1.12531183	     -1.76185103	    -13.46926411	    -17.66856640	     -9.70723432	     35.92834008	     46.60620441	      0.00000000	      0.00000000	     11.28841284	    -13.17281725	    -10.27078854	     44.01650024	     46.42187604	      0.00000000	      0.00000000
